<svg width="47" height="43" viewBox="0 0 47 43" fill="none" xmlns="http://www.w3.org/2000/svg">
<path fill-rule="evenodd" clip-rule="evenodd" d="M3.03449 0.221436H7.46243V3.24201H6.05506H3.03449V5.03709V6.26258V8.05766H6.05506H7.46243V11.0782H3.03449H0.013916V8.05766V3.24201V0.221436H3.03449ZM12.6658 8.05766H9.64586V12.7825H9.64522V39.23V42.2505H12.6658H18.5689H21.5894V39.23V11.0782H28.1484H31.1689V8.05766V3.24201V1.00517C29.0855 0.481408 26.8696 0.226048 24.5363 0.221436H9.64586V3.24201H25.1278H28.1484V5.03709V6.26258V8.05766H25.1278H21.5894H18.5689V11.0782V36.2094V39.23H15.6864H15.5483H12.6658V36.2094V11.0782V8.05766ZM24.4719 42.2506H23.7469V39.23H24.4719C28.3037 39.23 31.6522 38.5223 34.5174 37.107C37.4172 35.6571 39.6438 33.5859 41.1972 30.8932C42.7852 28.2006 43.5791 25.0247 43.5791 21.3655C43.5791 17.7063 42.7852 14.5131 41.1972 11.786C39.6438 9.0243 37.4172 6.91853 34.5174 5.46865C34.1293 5.26758 33.7323 5.08012 33.3265 4.90628V1.66155C34.2077 1.97878 35.0619 2.34998 35.8877 2.77669C39.2976 4.48613 41.9663 7.00101 43.8188 10.2854C45.708 13.5387 46.5997 17.2667 46.5997 21.3655C46.5997 25.466 45.7072 29.1863 43.8065 32.4149C41.9444 35.6372 39.2693 38.1081 35.8683 39.8087L35.8617 39.8119L35.8552 39.8152C32.4991 41.473 28.6763 42.2506 24.4719 42.2506ZM24.4719 34.4144H23.7469V31.3938H24.4719C28.1411 31.3938 30.49 30.4134 32.0029 28.8773C33.5397 27.3168 34.5002 24.9588 34.5002 21.3655C34.5002 17.7347 33.5371 15.3039 31.9715 13.666C31.8294 13.5174 31.6802 13.3739 31.5234 13.2359H33.3265V10.8027C33.6161 11.0453 33.8923 11.304 34.155 11.5788C36.3988 13.9263 37.5207 17.1885 37.5207 21.3655C37.5207 25.508 36.3988 28.7184 34.155 30.9968C31.9111 33.2752 28.6834 34.4144 24.4719 34.4144Z" fill="url(#paint0_linear_89_84)"/>
<defs>
<linearGradient id="paint0_linear_89_84" x1="23.3068" y1="0.221436" x2="23.3068" y2="42.2505" gradientUnits="userSpaceOnUse">
<stop stop-color="#FDFFFC"/>
<stop offset="1" stop-color="#8D3AF6"/>
</linearGradient>
</defs>
</svg>
